<svg xmlns="http://www.w3.org/2000/svg" viewBox="0 0 37 25">
  <path d="M0 16.176C0 11.303 3.869 7.353 8.642 7.353C13.415 7.353 17.284 11.303 17.284 16.176V21.078C17.284 23.244 15.564 25 13.443 25H8.642C3.869 25 0 21.049 0 16.176Z M19.443 6.959V4.412C19.443 1.975 21.378 0 23.764 0C26.151 0 28.085 1.975 28.085 4.412V5.006C28.085 6.173 28.815 7.209 29.898 7.581L31.126 8.003C34.472 9.152 36.727 12.355 36.727 15.96V16.23C36.727 21.073 32.881 25 28.137 25H23.284C21.163 25 19.443 23.244 19.443 21.078Z M35.397 3.182C35.103 3.182 34.836 3.113 34.596 2.976C34.363 2.837 34.17 2.639 34.035 2.401C33.901 2.159 33.835 1.888 33.835 1.587C33.835 1.285 33.904 1.017 34.043 0.781C34.177 0.545 34.371 0.349 34.604 0.214C34.838 0.071 35.103 0 35.397 0C35.69 0 35.955 0.071 36.19 0.214C36.422 0.348 36.613 0.544 36.743 0.781C36.881 1.017 36.951 1.285 36.951 1.587C36.951 1.888 36.881 2.159 36.743 2.401C36.612 2.639 36.421 2.838 36.19 2.976C35.96 3.113 35.696 3.182 35.397 3.182Z M35.397 2.952C35.648 2.952 35.872 2.894 36.07 2.779C36.269 2.662 36.432 2.491 36.542 2.286C36.66 2.077 36.718 1.844 36.718 1.587C36.718 1.329 36.66 1.099 36.542 0.896C36.434 0.691 36.269 0.523 36.07 0.411C35.872 0.291 35.648 0.23 35.397 0.23C35.146 0.23 34.919 0.291 34.716 0.411C34.518 0.526 34.355 0.694 34.243 0.896C34.131 1.099 34.075 1.329 34.075 1.587C34.075 1.844 34.131 2.077 34.243 2.286C34.356 2.489 34.519 2.659 34.716 2.779C34.919 2.894 35.146 2.952 35.397 2.952Z M35.068 2.458H34.82V0.683H35.445C35.632 0.683 35.781 0.732 35.893 0.83C36.006 0.924 36.062 1.055 36.062 1.225C36.062 1.34 36.032 1.442 35.974 1.529C35.915 1.617 35.824 1.683 35.701 1.726L36.094 2.458H35.813L35.461 1.784H35.068V2.458Z M35.797 1.233C35.797 1.025 35.677 0.921 35.437 0.921H35.068V1.546H35.437C35.549 1.546 35.637 1.521 35.701 1.472C35.765 1.417 35.797 1.338 35.797 1.233Z" fill="rgb(0,0,0)"/>
</svg>
