<svg xmlns="http://www.w3.org/2000/svg" viewBox="0 0 200 40" width="200" height="40">
  <g fill="black">
    <path d="M18.097 2.289C18.693 0.441 21.307 0.441 21.903 2.289L25.136 12.312C25.403 13.14 26.174 13.7 27.044 13.698L37.575 13.675C39.517 13.671 40.325 16.158 38.751 17.296L30.218 23.467C29.513 23.977 29.219 24.884 29.489 25.71L32.765 35.719C33.37 37.565 31.254 39.101 29.686 37.957L21.179 31.748C20.477 31.235 19.523 31.235 18.821 31.748L10.314 37.957C8.746 39.101 6.63 37.565 7.235 35.719L10.511 25.71C10.781 24.884 10.487 23.977 9.782 23.467L1.249 17.296C-0.325 16.158 0.483 13.671 2.425 13.675L12.956 13.698C13.826 13.7 14.597 13.14 14.864 12.312Z" transform="translate(0, 0)" />
    <path d="M18.097 2.289C18.693 0.441 21.307 0.441 21.903 2.289L25.136 12.312C25.403 13.14 26.174 13.7 27.044 13.698L37.575 13.675C39.517 13.671 40.325 16.158 38.751 17.296L30.218 23.467C29.513 23.977 29.219 24.884 29.489 25.71L32.765 35.719C33.37 37.565 31.254 39.101 29.686 37.957L21.179 31.748C20.477 31.235 19.523 31.235 18.821 31.748L10.314 37.957C8.746 39.101 6.63 37.565 7.235 35.719L10.511 25.71C10.781 24.884 10.487 23.977 9.782 23.467L1.249 17.296C-0.325 16.158 0.483 13.671 2.425 13.675L12.956 13.698C13.826 13.7 14.597 13.14 14.864 12.312Z" transform="translate(40, 0)" />
    <path d="M18.097 2.289C18.693 0.441 21.307 0.441 21.903 2.289L25.136 12.312C25.403 13.14 26.174 13.7 27.044 13.698L37.575 13.675C39.517 13.671 40.325 16.158 38.751 17.296L30.218 23.467C29.513 23.977 29.219 24.884 29.489 25.71L32.765 35.719C33.37 37.565 31.254 39.101 29.686 37.957L21.179 31.748C20.477 31.235 19.523 31.235 18.821 31.748L10.314 37.957C8.746 39.101 6.63 37.565 7.235 35.719L10.511 25.71C10.781 24.884 10.487 23.977 9.782 23.467L1.249 17.296C-0.325 16.158 0.483 13.671 2.425 13.675L12.956 13.698C13.826 13.7 14.597 13.14 14.864 12.312Z" transform="translate(80, 0)" />
    <path d="M18.097 2.289C18.693 0.441 21.307 0.441 21.903 2.289L25.136 12.312C25.403 13.14 26.174 13.7 27.044 13.698L37.575 13.675C39.517 13.671 40.325 16.158 38.751 17.296L30.218 23.467C29.513 23.977 29.219 24.884 29.489 25.71L32.765 35.719C33.37 37.565 31.254 39.101 29.686 37.957L21.179 31.748C20.477 31.235 19.523 31.235 18.821 31.748L10.314 37.957C8.746 39.101 6.63 37.565 7.235 35.719L10.511 25.71C10.781 24.884 10.487 23.977 9.782 23.467L1.249 17.296C-0.325 16.158 0.483 13.671 2.425 13.675L12.956 13.698C13.826 13.7 14.597 13.14 14.864 12.312Z" transform="translate(120, 0)" />
    <path d="M18.097 2.289C18.693 0.441 21.307 0.441 21.903 2.289L25.136 12.312C25.403 13.14 26.174 13.7 27.044 13.698L37.575 13.675C39.517 13.671 40.325 16.158 38.751 17.296L30.218 23.467C29.513 23.977 29.219 24.884 29.489 25.71L32.765 35.719C33.37 37.565 31.254 39.101 29.686 37.957L21.179 31.748C20.477 31.235 19.523 31.235 18.821 31.748L10.314 37.957C8.746 39.101 6.63 37.565 7.235 35.719L10.511 25.71C10.781 24.884 10.487 23.977 9.782 23.467L1.249 17.296C-0.325 16.158 0.483 13.671 2.425 13.675L12.956 13.698C13.826 13.7 14.597 13.14 14.864 12.312Z" transform="translate(160, 0)" />
  </g>
</svg>
